<svg aria-hidden="true" style="position: absolute; width: 0; height: 0; overflow: hidden;" version="1.1" xmlns="http://www.w3.org/2000/svg" xmlns:xlink="http://www.w3.org/1999/xlink">
<defs>
<symbol id="icon-flickr" viewBox="0 0 32 32">
<title>flickr</title>
<path d="M0 17c0-3.866 3.134-7 7-7s7 3.134 7 7c0 3.866-3.134 7-7 7s-7-3.134-7-7zM18 17c0-3.866 3.134-7 7-7s7 3.134 7 7c0 3.866-3.134 7-7 7s-7-3.134-7-7z"></path>
</symbol>
<symbol id="icon-flickr2" viewBox="0 0 32 32">
<title>flickr2</title>
<path d="M25 13c-2.206 0-4 1.794-4 4s1.794 4 4 4c2.206 0 4-1.794 4-4s-1.794-4-4-4zM25 10v0c3.866 0 7 3.134 7 7s-3.134 7-7 7-7-3.134-7-7c0-3.866 3.134-7 7-7zM0 17c0-3.866 3.134-7 7-7s7 3.134 7 7c0 3.866-3.134 7-7 7s-7-3.134-7-7z"></path>
</symbol>
</defs>
</svg>
